<mxfile host="65bd71144e">
    <diagram name="Functional Decomposition" id="functional-diagram">
        <mxGraphModel dx="167504" dy="126644" grid="0" gridSize="10" guides="1" tooltips="1" connect="1" arrows="1" fold="1" page="1" pageScale="1" pageWidth="1169" pageHeight="827" math="0" shadow="0">
            <root>
                <mxCell id="0"/>
                <mxCell id="1" parent="0"/>
                <mxCell id="main" value="Website Builder Community" style="rounded=1;whiteSpace=wrap;html=1;fillColor=#dae8fc;strokeColor=#6c8ebf;fontSize=14;fontStyle=1" parent="1" vertex="1">
                    <mxGeometry x="480" y="20" width="200" height="60" as="geometry"/>
                </mxCell>
                <mxCell id="user_mgmt" value="1. Quản lý người dùng" style="rounded=1;whiteSpace=wrap;html=1;fillColor=#d5e8d4;strokeColor=#82b366;fontSize=12" parent="1" vertex="1">
                    <mxGeometry x="40" y="160" width="160" height="40" as="geometry"/>
                </mxCell>
                <mxCell id="template_mgmt" value="2. Quản lý mẫu website" style="rounded=1;whiteSpace=wrap;html=1;fillColor=#d5e8d4;strokeColor=#82b366;fontSize=12" parent="1" vertex="1">
                    <mxGeometry x="280" y="160" width="160" height="40" as="geometry"/>
                </mxCell>
                <mxCell id="ai_design" value="3. Thiết kế website AI" style="rounded=1;whiteSpace=wrap;html=1;fillColor=#d5e8d4;strokeColor=#82b366;fontSize=12" parent="1" vertex="1">
                    <mxGeometry x="520" y="160" width="160" height="40" as="geometry"/>
                </mxCell>
                <mxCell id="community" value="4. Tương tác cộng đồng" style="rounded=1;whiteSpace=wrap;html=1;fillColor=#d5e8d4;strokeColor=#82b366;fontSize=12" parent="1" vertex="1">
                    <mxGeometry x="760" y="160" width="160" height="40" as="geometry"/>
                </mxCell>
                <mxCell id="system_admin" value="5. Quản trị hệ thống" style="rounded=1;whiteSpace=wrap;html=1;fillColor=#d5e8d4;strokeColor=#82b366;fontSize=12" parent="1" vertex="1">
                    <mxGeometry x="1000" y="160" width="160" height="40" as="geometry"/>
                </mxCell>
                <mxCell id="main_to_user" value="" style="endArrow=none;html=1;rounded=0;exitX=0.5;exitY=0;entryX=0.5;entryY=1;" parent="1" source="user_mgmt" target="main" edge="1"/>
                <mxCell id="main_to_template" value="" style="endArrow=none;html=1;rounded=0;exitX=0.5;exitY=0;entryX=0.5;entryY=1;" parent="1" source="template_mgmt" target="main" edge="1"/>
                <mxCell id="main_to_ai" value="" style="endArrow=none;html=1;rounded=0;exitX=0.5;exitY=0;entryX=0.5;entryY=1;" parent="1" source="ai_design" target="main" edge="1"/>
                <mxCell id="main_to_community" value="" style="endArrow=none;html=1;rounded=0;exitX=0.5;exitY=0;entryX=0.5;entryY=1;" parent="1" source="community" target="main" edge="1"/>
                <mxCell id="main_to_admin" value="" style="endArrow=none;html=1;rounded=0;exitX=0.5;exitY=0;entryX=0.5;entryY=1;" parent="1" source="system_admin" target="main" edge="1"/>
                <mxCell id="user_reg" value="1.1 Đăng ký&#xa;(register.php)" style="rounded=1;whiteSpace=wrap;html=1;fillColor=#fff2cc;strokeColor=#d6b656;fontSize=11" parent="1" vertex="1">
                    <mxGeometry x="20" y="240" width="120" height="40" as="geometry"/>
                </mxCell>
                <mxCell id="user_login" value="1.2 Đăng nhập&#xa;(login.php)" style="rounded=1;whiteSpace=wrap;html=1;fillColor=#fff2cc;strokeColor=#d6b656;fontSize=11" parent="1" vertex="1">
                    <mxGeometry x="20" y="290" width="120" height="40" as="geometry"/>
                </mxCell>
                <mxCell id="user_profile" value="1.4 Quản lý hồ sơ" style="rounded=1;whiteSpace=wrap;html=1;fillColor=#fff2cc;strokeColor=#d6b656;fontSize=11" parent="1" vertex="1">
                    <mxGeometry x="20" y="340" width="120" height="40" as="geometry"/>
                </mxCell>
                <mxCell id="user_settings" value="1.5 Cài đặt tài khoản" style="rounded=1;whiteSpace=wrap;html=1;fillColor=#fff2cc;strokeColor=#d6b656;fontSize=11" parent="1" vertex="1">
                    <mxGeometry x="20" y="390" width="120" height="40" as="geometry"/>
                </mxCell>
                <mxCell id="template_create" value="2.1 Tạo mẫu" style="rounded=1;whiteSpace=wrap;html=1;fillColor=#fff2cc;strokeColor=#d6b656;fontSize=11" parent="1" vertex="1">
                    <mxGeometry x="280" y="240" width="120" height="40" as="geometry"/>
                </mxCell>
                <mxCell id="template_edit" value="2.2 Chỉnh sửa mẫu" style="rounded=1;whiteSpace=wrap;html=1;fillColor=#fff2cc;strokeColor=#d6b656;fontSize=11" parent="1" vertex="1">
                    <mxGeometry x="280" y="290" width="120" height="40" as="geometry"/>
                </mxCell>
                <mxCell id="template_view" value="2.3 Xem mẫu" style="rounded=1;whiteSpace=wrap;html=1;fillColor=#fff2cc;strokeColor=#d6b656;fontSize=11" parent="1" vertex="1">
                    <mxGeometry x="280" y="340" width="120" height="40" as="geometry"/>
                </mxCell>
                <mxCell id="template_list" value="2.4 Quản lý danh sách" style="rounded=1;whiteSpace=wrap;html=1;fillColor=#fff2cc;strokeColor=#d6b656;fontSize=11" parent="1" vertex="1">
                    <mxGeometry x="280" y="390" width="120" height="40" as="geometry"/>
                </mxCell>
                <mxCell id="ai_create" value="3.1 Tạo website AI" style="rounded=1;whiteSpace=wrap;html=1;fillColor=#fff2cc;strokeColor=#d6b656;fontSize=11" parent="1" vertex="1">
                    <mxGeometry x="520" y="240" width="120" height="40" as="geometry"/>
                </mxCell>
                <mxCell id="ai_chat" value="3.2 Lưu chat AI" style="rounded=1;whiteSpace=wrap;html=1;fillColor=#fff2cc;strokeColor=#d6b656;fontSize=11" parent="1" vertex="1">
                    <mxGeometry x="520" y="290" width="120" height="40" as="geometry"/>
                </mxCell>
                <mxCell id="ai_render" value="3.3 Render mẫu" style="rounded=1;whiteSpace=wrap;html=1;fillColor=#fff2cc;strokeColor=#d6b656;fontSize=11" parent="1" vertex="1">
                    <mxGeometry x="520" y="340" width="120" height="40" as="geometry"/>
                </mxCell>
                <mxCell id="community_designs" value="4.1 Thiết kế của tôi" style="rounded=1;whiteSpace=wrap;html=1;fillColor=#fff2cc;strokeColor=#d6b656;fontSize=11" parent="1" vertex="1">
                    <mxGeometry x="760" y="240" width="120" height="40" as="geometry"/>
                </mxCell>
                <mxCell id="community_like" value="4.2 Thích mẫu" style="rounded=1;whiteSpace=wrap;html=1;fillColor=#fff2cc;strokeColor=#d6b656;fontSize=11" parent="1" vertex="1">
                    <mxGeometry x="760" y="290" width="120" height="40" as="geometry"/>
                </mxCell>
                <mxCell id="community_load" value="4.3 Tải thêm mẫu" style="rounded=1;whiteSpace=wrap;html=1;fillColor=#fff2cc;strokeColor=#d6b656;fontSize=11" parent="1" vertex="1">
                    <mxGeometry x="760" y="340" width="120" height="40" as="geometry"/>
                </mxCell>
                <mxCell id="admin_manage" value="5.1 Quản lý admin" style="rounded=1;whiteSpace=wrap;html=1;fillColor=#fff2cc;strokeColor=#d6b656;fontSize=11" parent="1" vertex="1">
                    <mxGeometry x="1000" y="240" width="120" height="40" as="geometry"/>
                </mxCell>
                <mxCell id="admin_db" value="5.2 Kết nối database" style="rounded=1;whiteSpace=wrap;html=1;fillColor=#fff2cc;strokeColor=#d6b656;fontSize=11" parent="1" vertex="1">
                    <mxGeometry x="1000" y="290" width="120" height="40" as="geometry"/>
                </mxCell>
                <mxCell id="admin_struct" value="5.3 Cấu trúc database" style="rounded=1;whiteSpace=wrap;html=1;fillColor=#fff2cc;strokeColor=#d6b656;fontSize=11" parent="1" vertex="1">
                    <mxGeometry x="1000" y="340" width="120" height="40" as="geometry"/>
                </mxCell>
                <mxCell id="user_to_reg" value="" style="endArrow=none;html=1;rounded=0;exitX=0.5;exitY=0;entryX=0.5;entryY=1;" parent="1" source="user_reg" target="user_mgmt" edge="1"/>
                <mxCell id="user_to_login" value="" style="endArrow=none;html=1;rounded=0;exitX=0.5;exitY=0;entryX=0.5;entryY=1;" parent="1" source="user_login" target="user_mgmt" edge="1"/>
                <mxCell id="user_to_profile" value="" style="endArrow=none;html=1;rounded=0;exitX=0.5;exitY=0;entryX=0.5;entryY=1;" parent="1" source="user_profile" target="user_mgmt" edge="1"/>
                <mxCell id="user_to_settings" value="" style="endArrow=none;html=1;rounded=0;exitX=0.5;exitY=0;entryX=0.5;entryY=1;" parent="1" source="user_settings" target="user_mgmt" edge="1"/>
                <mxCell id="template_to_create" value="" style="endArrow=none;html=1;rounded=0;exitX=0.5;exitY=0;entryX=0.5;entryY=1;" parent="1" source="template_create" target="template_mgmt" edge="1"/>
                <mxCell id="template_to_edit" value="" style="endArrow=none;html=1;rounded=0;exitX=0.5;exitY=0;entryX=0.5;entryY=1;" parent="1" source="template_edit" target="template_mgmt" edge="1"/>
                <mxCell id="template_to_view" value="" style="endArrow=none;html=1;rounded=0;exitX=0.5;exitY=0;entryX=0.5;entryY=1;" parent="1" source="template_view" target="template_mgmt" edge="1"/>
                <mxCell id="template_to_list" value="" style="endArrow=none;html=1;rounded=0;exitX=0.5;exitY=0;entryX=0.5;entryY=1;" parent="1" source="template_list" target="template_mgmt" edge="1"/>
                <mxCell id="ai_to_create" value="" style="endArrow=none;html=1;rounded=0;exitX=0.5;exitY=0;entryX=0.5;entryY=1;" parent="1" source="ai_create" target="ai_design" edge="1"/>
                <mxCell id="ai_to_chat" value="" style="endArrow=none;html=1;rounded=0;exitX=0.5;exitY=0;entryX=0.5;entryY=1;" parent="1" source="ai_chat" target="ai_design" edge="1"/>
                <mxCell id="ai_to_render" value="" style="endArrow=none;html=1;rounded=0;exitX=0.5;exitY=0;entryX=0.5;entryY=1;" parent="1" source="ai_render" target="ai_design" edge="1"/>
                <mxCell id="community_to_designs" value="" style="endArrow=none;html=1;rounded=0;exitX=0.5;exitY=0;entryX=0.5;entryY=1;" parent="1" source="community_designs" target="community" edge="1"/>
                <mxCell id="community_to_like" value="" style="endArrow=none;html=1;rounded=0;exitX=0.5;exitY=0;entryX=0.5;entryY=1;" parent="1" source="community_like" target="community" edge="1"/>
                <mxCell id="community_to_load" value="" style="endArrow=none;html=1;rounded=0;exitX=0.5;exitY=0;entryX=0.5;entryY=1;" parent="1" source="community_load" target="community" edge="1"/>
                <mxCell id="admin_to_manage" value="" style="endArrow=none;html=1;rounded=0;exitX=0.5;exitY=0;entryX=0.5;entryY=1;" parent="1" source="admin_manage" target="system_admin" edge="1"/>
                <mxCell id="admin_to_db" value="" style="endArrow=none;html=1;rounded=0;exitX=0.5;exitY=0;entryX=0.5;entryY=1;" parent="1" source="admin_db" target="system_admin" edge="1"/>
                <mxCell id="admin_to_struct" value="" style="endArrow=none;html=1;rounded=0;exitX=0.5;exitY=0;entryX=0.5;entryY=1;" parent="1" source="admin_struct" target="system_admin" edge="1"/>
                <mxCell id="2" value="" style="endArrow=classic;html=1;exitX=0.5;exitY=1;exitDx=0;exitDy=0;" edge="1" parent="1" source="main">
                    <mxGeometry width="50" height="50" relative="1" as="geometry">
                        <mxPoint x="590" y="140" as="sourcePoint"/>
                        <mxPoint x="580" y="120" as="targetPoint"/>
                    </mxGeometry>
                </mxCell>
                <mxCell id="3" value="" style="endArrow=none;html=1;" edge="1" parent="1">
                    <mxGeometry width="50" height="50" relative="1" as="geometry">
                        <mxPoint x="120" y="120" as="sourcePoint"/>
                        <mxPoint x="1080" y="120" as="targetPoint"/>
                    </mxGeometry>
                </mxCell>
                <mxCell id="4" value="" style="endArrow=classic;html=1;entryX=0.5;entryY=0;entryDx=0;entryDy=0;" edge="1" parent="1" target="user_mgmt">
                    <mxGeometry width="50" height="50" relative="1" as="geometry">
                        <mxPoint x="120" y="120" as="sourcePoint"/>
                        <mxPoint x="200" y="120" as="targetPoint"/>
                    </mxGeometry>
                </mxCell>
                <mxCell id="5" value="" style="endArrow=classic;html=1;entryX=0.5;entryY=0;entryDx=0;entryDy=0;" edge="1" parent="1">
                    <mxGeometry width="50" height="50" relative="1" as="geometry">
                        <mxPoint x="359.57" y="120" as="sourcePoint"/>
                        <mxPoint x="359.57" y="160" as="targetPoint"/>
                    </mxGeometry>
                </mxCell>
                <mxCell id="6" value="" style="endArrow=classic;html=1;entryX=0.5;entryY=0;entryDx=0;entryDy=0;" edge="1" parent="1">
                    <mxGeometry width="50" height="50" relative="1" as="geometry">
                        <mxPoint x="579.5699999999999" y="120" as="sourcePoint"/>
                        <mxPoint x="579.5699999999999" y="160" as="targetPoint"/>
                    </mxGeometry>
                </mxCell>
                <mxCell id="7" value="" style="endArrow=classic;html=1;entryX=0.5;entryY=0;entryDx=0;entryDy=0;" edge="1" parent="1">
                    <mxGeometry width="50" height="50" relative="1" as="geometry">
                        <mxPoint x="839.5699999999999" y="120" as="sourcePoint"/>
                        <mxPoint x="839.5699999999999" y="160" as="targetPoint"/>
                    </mxGeometry>
                </mxCell>
                <mxCell id="8" value="" style="endArrow=classic;html=1;entryX=0.5;entryY=0;entryDx=0;entryDy=0;" edge="1" parent="1">
                    <mxGeometry width="50" height="50" relative="1" as="geometry">
                        <mxPoint x="1079.57" y="120" as="sourcePoint"/>
                        <mxPoint x="1079.57" y="160" as="targetPoint"/>
                    </mxGeometry>
                </mxCell>
                <mxCell id="10" value="" style="endArrow=none;html=1;entryX=1;entryY=1;entryDx=0;entryDy=0;" edge="1" parent="1">
                    <mxGeometry width="50" height="50" relative="1" as="geometry">
                        <mxPoint x="190" y="420" as="sourcePoint"/>
                        <mxPoint x="190" y="200" as="targetPoint"/>
                    </mxGeometry>
                </mxCell>
                <mxCell id="11" value="" style="endArrow=none;html=1;entryX=1;entryY=1;entryDx=0;entryDy=0;" edge="1" parent="1">
                    <mxGeometry width="50" height="50" relative="1" as="geometry">
                        <mxPoint x="430" y="420" as="sourcePoint"/>
                        <mxPoint x="430" y="200" as="targetPoint"/>
                    </mxGeometry>
                </mxCell>
                <mxCell id="12" value="" style="endArrow=none;html=1;entryX=1;entryY=1;entryDx=0;entryDy=0;" edge="1" parent="1">
                    <mxGeometry width="50" height="50" relative="1" as="geometry">
                        <mxPoint x="670" y="370" as="sourcePoint"/>
                        <mxPoint x="670" y="200" as="targetPoint"/>
                    </mxGeometry>
                </mxCell>
                <mxCell id="13" value="" style="endArrow=none;html=1;entryX=1;entryY=1;entryDx=0;entryDy=0;" edge="1" parent="1">
                    <mxGeometry width="50" height="50" relative="1" as="geometry">
                        <mxPoint x="910" y="370" as="sourcePoint"/>
                        <mxPoint x="910" y="200" as="targetPoint"/>
                    </mxGeometry>
                </mxCell>
                <mxCell id="14" value="" style="endArrow=none;html=1;entryX=1;entryY=1;entryDx=0;entryDy=0;" edge="1" parent="1">
                    <mxGeometry width="50" height="50" relative="1" as="geometry">
                        <mxPoint x="1150" y="370" as="sourcePoint"/>
                        <mxPoint x="1150" y="200" as="targetPoint"/>
                    </mxGeometry>
                </mxCell>
                <mxCell id="15" value="" style="endArrow=classic;html=1;entryX=0.5;entryY=0;entryDx=0;entryDy=0;" edge="1" parent="1">
                    <mxGeometry width="50" height="50" relative="1" as="geometry">
                        <mxPoint x="190" y="260" as="sourcePoint"/>
                        <mxPoint x="140" y="259.75" as="targetPoint"/>
                    </mxGeometry>
                </mxCell>
                <mxCell id="16" value="" style="endArrow=classic;html=1;entryX=0.5;entryY=0;entryDx=0;entryDy=0;" edge="1" parent="1">
                    <mxGeometry width="50" height="50" relative="1" as="geometry">
                        <mxPoint x="190" y="309.89" as="sourcePoint"/>
                        <mxPoint x="140" y="309.64" as="targetPoint"/>
                    </mxGeometry>
                </mxCell>
                <mxCell id="17" value="" style="endArrow=classic;html=1;entryX=0.5;entryY=0;entryDx=0;entryDy=0;" edge="1" parent="1">
                    <mxGeometry width="50" height="50" relative="1" as="geometry">
                        <mxPoint x="190" y="359.89" as="sourcePoint"/>
                        <mxPoint x="140" y="359.64" as="targetPoint"/>
                    </mxGeometry>
                </mxCell>
                <mxCell id="18" value="" style="endArrow=classic;html=1;entryX=0.5;entryY=0;entryDx=0;entryDy=0;" edge="1" parent="1">
                    <mxGeometry width="50" height="50" relative="1" as="geometry">
                        <mxPoint x="190" y="409.89" as="sourcePoint"/>
                        <mxPoint x="140" y="409.64" as="targetPoint"/>
                    </mxGeometry>
                </mxCell>
                <mxCell id="19" value="" style="endArrow=classic;html=1;entryX=0.5;entryY=0;entryDx=0;entryDy=0;" edge="1" parent="1">
                    <mxGeometry width="50" height="50" relative="1" as="geometry">
                        <mxPoint x="430" y="260" as="sourcePoint"/>
                        <mxPoint x="400" y="259.64" as="targetPoint"/>
                    </mxGeometry>
                </mxCell>
                <mxCell id="20" value="" style="endArrow=classic;html=1;entryX=0.5;entryY=0;entryDx=0;entryDy=0;" edge="1" parent="1">
                    <mxGeometry width="50" height="50" relative="1" as="geometry">
                        <mxPoint x="430" y="310.11" as="sourcePoint"/>
                        <mxPoint x="400" y="309.75" as="targetPoint"/>
                    </mxGeometry>
                </mxCell>
                <mxCell id="21" value="" style="endArrow=classic;html=1;entryX=0.5;entryY=0;entryDx=0;entryDy=0;" edge="1" parent="1">
                    <mxGeometry width="50" height="50" relative="1" as="geometry">
                        <mxPoint x="430" y="360.11" as="sourcePoint"/>
                        <mxPoint x="400" y="359.75" as="targetPoint"/>
                    </mxGeometry>
                </mxCell>
                <mxCell id="22" value="" style="endArrow=classic;html=1;entryX=0.5;entryY=0;entryDx=0;entryDy=0;" edge="1" parent="1">
                    <mxGeometry width="50" height="50" relative="1" as="geometry">
                        <mxPoint x="430" y="410.11" as="sourcePoint"/>
                        <mxPoint x="400" y="409.75" as="targetPoint"/>
                    </mxGeometry>
                </mxCell>
                <mxCell id="23" value="" style="endArrow=classic;html=1;entryX=0.5;entryY=0;entryDx=0;entryDy=0;" edge="1" parent="1">
                    <mxGeometry width="50" height="50" relative="1" as="geometry">
                        <mxPoint x="670" y="260.11" as="sourcePoint"/>
                        <mxPoint x="640" y="259.75" as="targetPoint"/>
                    </mxGeometry>
                </mxCell>
                <mxCell id="24" value="" style="endArrow=classic;html=1;entryX=0.5;entryY=0;entryDx=0;entryDy=0;" edge="1" parent="1">
                    <mxGeometry width="50" height="50" relative="1" as="geometry">
                        <mxPoint x="670" y="310.11" as="sourcePoint"/>
                        <mxPoint x="640" y="309.75" as="targetPoint"/>
                    </mxGeometry>
                </mxCell>
                <mxCell id="25" value="" style="endArrow=classic;html=1;entryX=0.5;entryY=0;entryDx=0;entryDy=0;" edge="1" parent="1">
                    <mxGeometry width="50" height="50" relative="1" as="geometry">
                        <mxPoint x="670" y="360.11" as="sourcePoint"/>
                        <mxPoint x="640" y="359.75" as="targetPoint"/>
                    </mxGeometry>
                </mxCell>
                <mxCell id="26" value="" style="endArrow=classic;html=1;entryX=0.5;entryY=0;entryDx=0;entryDy=0;" edge="1" parent="1">
                    <mxGeometry width="50" height="50" relative="1" as="geometry">
                        <mxPoint x="910" y="260.11" as="sourcePoint"/>
                        <mxPoint x="880" y="259.75" as="targetPoint"/>
                    </mxGeometry>
                </mxCell>
                <mxCell id="27" value="" style="endArrow=classic;html=1;entryX=0.5;entryY=0;entryDx=0;entryDy=0;" edge="1" parent="1">
                    <mxGeometry width="50" height="50" relative="1" as="geometry">
                        <mxPoint x="910" y="310.11" as="sourcePoint"/>
                        <mxPoint x="880" y="309.75" as="targetPoint"/>
                    </mxGeometry>
                </mxCell>
                <mxCell id="28" value="" style="endArrow=classic;html=1;entryX=0.5;entryY=0;entryDx=0;entryDy=0;" edge="1" parent="1">
                    <mxGeometry width="50" height="50" relative="1" as="geometry">
                        <mxPoint x="910" y="360.11" as="sourcePoint"/>
                        <mxPoint x="880" y="359.75" as="targetPoint"/>
                    </mxGeometry>
                </mxCell>
                <mxCell id="29" value="" style="endArrow=classic;html=1;entryX=0.5;entryY=0;entryDx=0;entryDy=0;" edge="1" parent="1">
                    <mxGeometry width="50" height="50" relative="1" as="geometry">
                        <mxPoint x="1150" y="260.11" as="sourcePoint"/>
                        <mxPoint x="1120" y="259.75" as="targetPoint"/>
                    </mxGeometry>
                </mxCell>
                <mxCell id="30" value="" style="endArrow=classic;html=1;entryX=0.5;entryY=0;entryDx=0;entryDy=0;" edge="1" parent="1">
                    <mxGeometry width="50" height="50" relative="1" as="geometry">
                        <mxPoint x="1150" y="310.11" as="sourcePoint"/>
                        <mxPoint x="1120" y="309.75" as="targetPoint"/>
                    </mxGeometry>
                </mxCell>
                <mxCell id="31" value="" style="endArrow=classic;html=1;entryX=0.5;entryY=0;entryDx=0;entryDy=0;" edge="1" parent="1">
                    <mxGeometry width="50" height="50" relative="1" as="geometry">
                        <mxPoint x="1150" y="360.11" as="sourcePoint"/>
                        <mxPoint x="1120" y="359.75" as="targetPoint"/>
                    </mxGeometry>
                </mxCell>
            </root>
        </mxGraphModel>
    </diagram>
</mxfile>